<svg width="167" height="152" viewBox="0 0 167 152" fill="none" xmlns="http://www.w3.org/2000/svg">
<path d="M164.639 72.7691H117.023V64.9114C120.97 64.9114 123.772 64.4844 125.431 63.6303C127.089 62.7192 128.09 61.495 128.434 59.9576C128.834 58.3633 129.034 55.858 129.034 52.4416V26.5624C129.034 22.8044 128.176 19.3311 126.46 16.1424C124.802 12.9538 120.97 11.3595 114.964 11.3595C110.674 11.3595 106.956 12.4414 103.811 14.6051C100.665 16.7118 98.2341 19.6442 96.5182 23.4023C94.8595 27.1034 94.0302 31.26 94.0302 35.8721V52.4416C94.0302 55.9718 94.2304 58.5341 94.6308 60.1285C95.0883 61.6658 96.2036 62.8616 97.9767 63.7157C99.7498 64.5128 102.638 64.9114 106.642 64.9114V72.7691H59.97V64.9114C63.8021 64.9114 66.5475 64.4844 68.2062 63.6303C69.9221 62.7762 70.9516 61.552 71.2948 59.9576C71.6952 58.3633 71.8954 55.858 71.8954 52.4416V25.5375C71.8954 19.5588 70.3225 15.7154 67.1767 14.0072C64.0309 12.2421 61.0853 11.3595 58.3399 11.3595C54.6794 11.3595 51.1332 12.2421 47.7015 14.0072C44.2697 15.7723 41.6673 18.0499 39.8942 20.84C38.6359 22.8898 37.8065 24.9112 37.4062 26.9041C37.063 28.897 36.8914 31.4023 36.8914 34.4201V52.4416C36.8914 55.9718 37.0916 58.5341 37.492 60.1285C37.9495 61.6658 39.0935 62.8616 40.9237 63.7157C42.754 64.5128 45.6424 64.9114 49.5889 64.9114V72.7691H2.65961V64.9114C6.54894 64.9114 9.32295 64.5128 10.9816 63.7157C12.6975 62.8616 13.7556 61.6374 14.156 60.043C14.5564 58.4487 14.7566 55.9149 14.7566 52.4416V23.2314C14.7566 17.8791 11.2962 15.2029 4.37549 15.2029H0V7.34524L36.2051 0C36.6626 3.01781 36.8914 7.34524 36.8914 12.9823C40.9523 8.93955 45.242 5.77939 49.7605 3.5018C54.3362 1.16727 59.5982 0 65.5466 0C71.0946 0 76.4138 1.08186 81.5043 3.24557C86.5947 5.40928 90.4269 9.39507 93.0007 15.2029C98.2055 9.05343 103.21 4.98223 108.015 2.98934C112.819 0.996447 117.767 0 122.857 0C131.894 0 138.872 2.13524 143.791 6.40573C148.71 10.6762 151.169 17.2243 151.169 26.05V52.4416C151.169 55.6302 151.312 58.0502 151.598 59.7014C151.941 61.2957 152.856 62.5769 154.343 63.5448C155.888 64.4559 158.318 64.9114 161.636 64.9114H164.639V72.7691Z" fill="black"/>
<path d="M60.2119 104.44C60.2119 108.769 59.1868 112.798 57.1366 116.528C55.1217 120.223 52.3115 123.162 48.7059 125.343C45.1357 127.49 41.1237 128.563 36.6697 128.563C31.0847 128.563 26.2242 126.61 22.0885 122.704V139.595C22.0885 141.601 22.2122 143.097 22.4596 144.082C22.7424 145.103 23.3433 145.859 24.2624 146.352C25.2168 146.88 26.6661 147.144 28.6103 147.144H31.5265V152H0.720228V147.144C3.12393 147.144 4.85601 146.933 5.91647 146.51C6.97693 146.123 7.64855 145.437 7.93134 144.452C8.24948 143.466 8.40855 141.848 8.40855 139.595V98.2645C8.40855 96.2234 8.24948 94.7454 7.93134 93.8305C7.64855 92.9155 6.97693 92.2645 5.91647 91.8774C4.89136 91.4551 3.15928 91.244 0.720228 91.244V86.3877L21.3461 81.8482C21.7703 83.2558 22.0178 85.4904 22.0885 88.5519C24.4215 86.2294 26.8252 84.5402 29.2996 83.4845C31.8093 82.3936 34.6902 81.8482 37.9423 81.8482C41.4772 81.8482 44.6409 82.4816 47.4334 83.7485C50.2259 85.0153 52.5589 86.722 54.4324 88.8686C56.3059 90.9801 57.7375 93.4082 58.7273 96.153C59.717 98.8627 60.2119 101.625 60.2119 104.44ZM45.5776 103.912C45.5776 93.1091 41.7776 87.7074 34.1777 87.7074C31.7033 87.7074 29.4233 88.4288 27.3377 89.8716C25.2875 91.2792 23.5377 93.0035 22.0885 95.0445V115.895C23.467 117.971 25.2522 119.625 27.4438 120.857C29.6707 122.088 31.9507 122.704 34.2837 122.704C41.813 122.704 45.5776 116.44 45.5776 103.912Z" fill="black"/>
<path d="M167 126.821H137.572V121.965C140.011 121.965 141.743 121.701 142.769 121.173C143.794 120.61 144.412 119.854 144.624 118.904C144.872 117.918 144.996 116.37 144.996 114.258V98.2645C144.996 95.9419 144.465 93.7953 143.405 91.8246C142.38 89.854 140.011 88.8686 136.3 88.8686C133.649 88.8686 131.351 89.5373 129.407 90.8745C127.463 92.1765 125.96 93.9888 124.9 96.3114C123.875 98.5988 123.362 101.168 123.362 104.018V114.258C123.362 116.44 123.486 118.024 123.733 119.009C124.016 119.959 124.705 120.698 125.801 121.226C126.897 121.719 128.682 121.965 131.157 121.965V126.821H102.312V121.965C104.68 121.965 106.377 121.701 107.402 121.173C108.463 120.645 109.099 119.889 109.311 118.904C109.559 117.918 109.682 116.37 109.682 114.258V97.631C109.682 93.936 108.71 91.5607 106.766 90.505C104.822 89.4141 103.001 88.8686 101.305 88.8686C99.0423 88.8686 96.8507 89.4141 94.7298 90.505C92.6089 91.5959 91.0005 93.0035 89.9047 94.7278C89.1271 95.9947 88.6145 97.2439 88.3671 98.4756C88.155 99.7073 88.0489 101.256 88.0489 103.121V114.258C88.0489 116.44 88.1726 118.024 88.4201 119.009C88.7029 119.959 89.4098 120.698 90.541 121.226C91.6722 121.719 93.4573 121.965 95.8963 121.965V126.821H66.8928V121.965C69.2965 121.965 71.0109 121.719 72.036 121.226C73.0965 120.698 73.7504 119.942 73.9979 118.956C74.2453 117.971 74.369 116.405 74.369 114.258V96.2058C74.369 92.8979 72.2304 91.244 67.9533 91.244H65.2491V86.3877L87.6247 81.8482C87.9075 83.7133 88.0489 86.3877 88.0489 89.8716C90.5587 87.3731 93.2098 85.42 96.0024 84.0124C98.8302 82.5696 102.082 81.8482 105.759 81.8482C109.187 81.8482 112.475 82.5168 115.621 83.854C118.767 85.1913 121.135 87.6546 122.726 91.244C125.943 87.4434 129.036 84.9273 132.005 83.6957C134.974 82.464 138.032 81.8482 141.178 81.8482C146.763 81.8482 151.075 83.1678 154.115 85.8071C157.155 88.4464 158.675 92.4932 158.675 97.9477V114.258C158.675 116.229 158.764 117.725 158.941 118.745C159.153 119.731 159.718 120.522 160.637 121.121C161.592 121.684 163.094 121.965 165.144 121.965H167V126.821Z" fill="black"/>
</svg>
